<?xml version="1.0" standalone="no"?>
<!DOCTYPE svg PUBLIC "-//W3C//DTD SVG 20010904//EN"
 "http://www.w3.org/TR/2001/REC-SVG-20010904/DTD/svg10.dtd">
<svg version="1.0" xmlns="http://www.w3.org/2000/svg"
 width="200.000000pt" height="200.000000pt" viewBox="0 0 200.000000 200.000000"
 preserveAspectRatio="xMidYMid meet">
<metadata>
Created by potrace 1.11, written by Peter Selinger 2001-2013
</metadata>
<g transform="translate(0.000000,200.000000) scale(0.100000,-0.100000)"
fill="#000000" stroke="none">
<path d="M0 1432 c0 -5 16 -69 35 -143 20 -74 37 -141 39 -149 22 -92 26 -100
56 -100 25 0 31 5 39 38 15 55 71 284 72 291 0 5 66 -250 74 -292 6 -30 15
-37 45 -37 28 0 32 7 45 71 4 17 72 279 81 312 4 13 -1 17 -23 17 -28 0 -28 0
-69 -168 l-40 -167 -40 165 -40 165 -30 0 -29 0 -39 -159 c-44 -177 -40 -177
-82 -12 -47 187 -42 176 -69 176 -14 0 -25 -4 -25 -8z"/>
<path d="M625 1342 c-69 -24 -110 -93 -102 -169 11 -95 62 -138 162 -137 72 0
105 16 105 49 0 24 0 24 -37 8 -85 -36 -152 -10 -176 69 -8 23 4 25 115 23 87
-1 97 1 102 17 8 31 -18 100 -44 119 -28 21 -94 32 -125 21z m88 -47 c9 -4 17
-8 17 -9 0 0 4 -15 9 -32 l9 -31 -84 0 c-71 0 -84 2 -84 16 1 51 71 81 133 56z"/>
<path d="M74 976 c-31 -14 -42 -30 -50 -76 -3 -14 -9 -26 -15 -28 -13 -5 -11
-60 2 -64 7 -2 11 -45 11 -121 l0 -117 49 0 48 0 3 118 3 117 35 5 c30 4 35 9
35 33 1 25 -2 27 -38 27 -34 0 -38 3 -35 23 3 19 9 22 46 22 42 0 42 0 42 38
l0 37 -52 0 c-29 -1 -67 -7 -84 -14z"/>
<path d="M1611 770 l1 -200 52 0 52 0 -1 75 c-1 73 0 74 23 72 18 -1 40 -22
78 -74 l54 -73 60 0 c33 0 60 2 60 5 0 3 -27 41 -61 84 l-61 80 32 28 c42 38
55 100 29 142 -31 51 -64 61 -198 61 l-120 0 0 -200z m215 106 c14 -20 7 -56
-14 -73 -19 -15 -91 -17 -93 -3 -4 31 -5 77 -1 87 6 18 93 9 108 -11z"/>
<path d="M970 915 c0 -38 -3 -45 -20 -45 -16 0 -20 -7 -20 -30 0 -23 4 -30 20
-30 18 0 20 -7 20 -84 0 -127 16 -153 97 -160 65 -5 87 6 88 42 1 31 -1 32
-30 26 -43 -8 -53 9 -55 86 -2 84 -1 90 8 89 4 -1 23 -1 43 0 33 1 36 3 36 31
0 29 -2 30 -43 30 l-43 0 -3 43 -3 42 -47 3 -48 3 0 -46z"/>
<path d="M348 884 c-3 -3 -53 -12 -75 -13 -8 -1 -13 -16 -13 -41 l0 -39 38 13
c51 18 112 14 128 -9 8 -10 13 -20 11 -21 -1 -1 -29 -6 -62 -9 -91 -11 -126
-33 -139 -89 -15 -60 35 -116 101 -116 16 0 45 9 66 20 24 13 36 16 35 8 -2
-9 14 -14 48 -16 l50 -3 -1 126 c-2 165 -9 173 -157 189 -15 2 -29 2 -30 0z
m90 -203 c1 -46 -45 -71 -90 -49 -44 21 -2 78 58 78 27 0 31 -3 32 -29z"/>
<path d="M741 878 c-87 -15 -131 -68 -131 -158 0 -94 48 -145 148 -157 26 -3
66 0 90 6 41 12 42 12 42 56 l0 45 -37 -20 c-51 -27 -88 -25 -118 5 -32 31
-34 91 -4 129 26 33 77 35 125 5 l34 -21 0 45 c0 43 -2 46 -32 55 -56 17 -72
18 -117 10z"/>
<path d="M1315 874 c-86 -21 -126 -89 -110 -189 9 -63 57 -111 120 -121 127
-19 205 40 205 155 0 120 -92 187 -215 155z m98 -85 c22 -27 23 -106 1 -137
-19 -27 -75 -30 -95 -5 -9 9 -14 40 -14 75 0 50 4 63 23 78 27 22 61 18 85
-11z"/>
</g>
</svg>
